<svg width="35" height="35" viewBox="0 0 35 35" fill="none" xmlns="http://www.w3.org/2000/svg">
<path d="M35 17.5C35 27.165 27.165 35 17.5 35C7.83502 35 0 27.165 0 17.5C0 7.83502 7.83502 0 17.5 0C27.165 0 35 7.83502 35 17.5Z" fill="#FFD1A6"/>
<g clip-path="url(#clip0)">
<path d="M17.5 30C24.3921 30 30 24.3926 30 17.5C30 16.3103 29.8339 15.1379 29.5051 14.0151C29.3431 13.463 28.7666 13.1459 28.2129 13.3079C27.6603 13.4694 27.3442 14.048 27.5057 14.6001C27.7781 15.5329 27.9167 16.5089 27.9167 17.5C27.9167 23.2437 23.2437 27.9167 17.5 27.9167C11.7563 27.9167 7.08333 23.2437 7.08333 17.5C7.08333 11.7563 11.7563 7.08333 17.5 7.08333C19.5874 7.08333 21.5957 7.69368 23.3077 8.84801C23.7843 9.16972 24.4323 9.04332 24.7535 8.56674C25.075 8.08965 24.9496 7.44217 24.4725 7.12072C22.4151 5.73344 20.0042 5 17.5 5C10.6079 5 5 10.6074 5 17.5C5 24.3926 10.6079 30 17.5 30Z" fill="#465F56"/>
<path d="M28.2219 7.38848L17.5 18.1098L14.0698 14.6801C13.6629 14.2735 13.0038 14.2735 12.5969 14.6801C12.1902 15.087 12.1902 15.7462 12.5969 16.1531L16.7635 20.3198C16.9672 20.5235 17.2332 20.625 17.5 20.625C17.7668 20.625 18.0328 20.5235 18.2365 20.3198L29.6948 8.86146C30.1015 8.45456 30.1015 7.79538 29.6948 7.38848C29.2879 6.98183 28.6288 6.98183 28.2219 7.38848Z" fill="#465F56"/>
</g>
<defs>
<clipPath id="clip0">
<rect width="25" height="25" fill="white" transform="translate(5 5)"/>
</clipPath>
</defs>
</svg>
