<svg width="35" height="35" viewBox="0 0 35 35" fill="none" xmlns="http://www.w3.org/2000/svg">
<path d="M35 17.5C35 27.165 27.165 35 17.5 35C7.83502 35 0 27.165 0 17.5C0 7.83502 7.83502 0 17.5 0C27.165 0 35 7.83502 35 17.5Z" fill="#FFD1A6"/>
<path d="M18 22.9167C18.7656 22.9167 19.403 22.3301 19.4675 21.5671L20.4629 9.67841C20.5208 8.98889 20.287 8.30727 19.819 7.79817C19.3516 7.28973 18.6914 7 18 7C17.3086 7 16.6484 7.28973 16.1809 7.79817C15.7128 8.30727 15.4792 8.98889 15.5371 9.67841L16.5325 21.5671C16.597 22.3301 17.2343 22.9167 18 22.9167Z" fill="#465F56"/>
<path d="M18 23.7917C17.1139 23.7917 16.3958 24.5098 16.3958 25.3959C16.3958 26.282 17.1139 27 18 27C18.8861 27 19.6042 26.282 19.6042 25.3959C19.6042 24.5098 18.8861 23.7917 18 23.7917Z" fill="#465F56"/>
</svg>
