<svg width="50" height="50" viewBox="0 0 50 50" fill="none" xmlns="http://www.w3.org/2000/svg">
<path d="M50 25C50 38.8071 38.8071 50 25 50C11.1929 50 0 38.8071 0 25C0 11.1929 11.1929 0 25 0C38.8071 0 50 11.1929 50 25Z" fill="#FFD1A6"/>
<g clip-path="url(#clip0)">
<path d="M38.2022 34.1548C39.3804 32.5507 39.9993 30.6867 39.9993 28.7221C39.9993 25.5773 38.3684 22.6576 35.617 20.8355C35.3632 18.0337 34.0549 15.4352 31.8675 13.4331C29.4487 11.2193 26.2396 10 22.8314 10C19.4232 10 16.2141 11.2193 13.7952 13.4332C11.3474 15.6735 9.99937 18.6605 9.99937 21.8439C9.99937 24.2924 10.7887 26.6138 12.2891 28.6L10.0848 34.0529C9.90603 34.4951 10.0131 35.0016 10.3556 35.3335C10.5788 35.5499 10.8728 35.6641 11.1715 35.6641C11.3311 35.664 11.492 35.6314 11.644 35.5645L17.9311 32.793C18.7204 33.0947 19.5336 33.3204 20.3655 33.4698C21.2176 34.8712 22.4331 36.0581 23.9107 36.922C25.5604 37.8864 27.4651 38.4017 29.4243 38.4165C29.453 38.4186 29.4818 38.4209 29.5111 38.4209C30.8656 38.4209 32.178 38.1869 33.4195 37.7248L38.3548 39.9004C38.5068 39.9674 38.6677 40 38.8272 40C39.1259 40 39.42 39.8859 39.6432 39.6694C39.9857 39.3374 40.0927 38.831 39.9139 38.3888L38.2022 34.1548ZM35.7741 34.4017L36.6594 36.5917L33.915 35.3819C33.6183 35.2512 33.2807 35.2491 32.9824 35.3764C31.9068 35.8353 30.755 36.0705 29.5585 36.0766C29.5427 36.0759 29.5271 36.0742 29.511 36.0742C27.2016 36.0742 25.0198 35.1717 23.4956 33.6705C25.4282 33.5779 27.3225 33.0844 29.0114 32.2267C29.5885 31.9336 29.8187 31.2282 29.5256 30.6511C29.2326 30.0741 28.5271 29.844 27.9501 30.137C26.3953 30.9267 24.6253 31.344 22.8314 31.344C21.2725 31.344 19.7718 31.041 18.371 30.4433C18.0728 30.316 17.7351 30.3179 17.4384 30.4488L13.3393 32.2558L14.7194 28.8418C14.8831 28.437 14.8081 27.9747 14.5248 27.6424C13.0976 25.9679 12.3431 23.9628 12.3431 21.8439C12.3431 16.6054 17.0481 12.3437 22.8314 12.3437C28.6146 12.3437 33.3196 16.6054 33.3196 21.8439C33.3196 23.5358 32.8222 25.1968 31.881 26.6473C31.5288 27.1903 31.6833 27.9159 32.2263 28.2682C32.7691 28.6206 33.4949 28.4659 33.8473 27.923C34.6825 26.6357 35.2405 25.2145 35.4985 23.7384C36.8713 25.0828 37.6556 26.8535 37.6556 28.7221C37.6556 30.3584 37.0723 31.9076 35.9687 33.2023C35.6854 33.5346 35.6104 33.9969 35.7741 34.4017ZM23.9447 27.8711C23.9447 28.5183 23.42 29.0429 22.7728 29.0429C22.1256 29.0429 21.6009 28.5183 21.6009 27.8711C21.6009 27.2238 22.1256 26.6992 22.7728 26.6992C23.42 26.6992 23.9447 27.2238 23.9447 27.8711ZM27.2249 19.0909C27.2256 19.1072 27.226 19.1235 27.226 19.14C27.2264 20.904 26.1782 22.4916 24.5557 23.1842C24.2199 23.3276 24.0029 23.6657 24.0029 24.0456V24.1211C24.0029 24.7683 23.4782 25.2929 22.831 25.2929C22.1838 25.2929 21.6592 24.7683 21.6592 24.1211V24.0457C21.6592 22.7255 22.4349 21.5413 23.6355 21.0288C24.3827 20.7097 24.869 19.9843 24.8819 19.1741C24.8816 19.1629 24.8814 19.1516 24.8814 19.1403C24.8814 18.0097 23.9616 17.0899 22.831 17.0899C21.7005 17.0898 20.7806 18.0096 20.7806 19.1402C20.7806 19.7874 20.2559 20.3121 19.6087 20.3121C18.9615 20.3121 18.4369 19.7874 18.4369 19.1402C18.4369 16.7173 20.4081 14.7461 22.831 14.7461C25.2375 14.7461 27.1985 16.6906 27.2249 19.0909Z" fill="#465F56"/>
</g>
<defs>
<clipPath id="clip0">
<rect width="30" height="30" fill="white" transform="translate(10 10)"/>
</clipPath>
</defs>
</svg>
