<svg width="25" height="25" viewBox="0 0 25 25" fill="none" xmlns="http://www.w3.org/2000/svg">
<path d="M25 12.5C25 19.4036 19.4036 25 12.5 25C5.59644 25 0 19.4036 0 12.5C0 5.59644 5.59644 0 12.5 0C19.4036 0 25 5.59644 25 12.5Z" fill="#FFD1A6"/>
<g clip-path="url(#clip0)">
<path d="M19.1008 17.0774C19.6899 16.2753 19.9993 15.3434 19.9993 14.3611C19.9993 12.7886 19.1839 11.3288 17.8082 10.4178C17.6813 9.01683 17.0271 7.7176 15.9334 6.71656C14.724 5.60964 13.1195 5 11.4154 5C9.71124 5 8.10671 5.60964 6.89728 6.71659C5.67338 7.83675 4.99935 9.33025 4.99935 10.9219C4.99935 12.1462 5.39401 13.3069 6.14424 14.3L5.04206 17.0265C4.95268 17.2476 5.0062 17.5008 5.17744 17.6667C5.28906 17.7749 5.43608 17.832 5.58543 17.832C5.66521 17.832 5.74566 17.8157 5.82165 17.7822L8.96523 16.3965C9.35989 16.5473 9.76647 16.6602 10.1824 16.7349C10.6085 17.4356 11.2162 18.029 11.955 18.461C12.7799 18.9432 13.7322 19.2008 14.7118 19.2083C14.7262 19.2093 14.7405 19.2105 14.7552 19.2105C15.4325 19.2105 16.0887 19.0935 16.7094 18.8624L19.177 19.9502C19.253 19.9837 19.3335 20 19.4133 20C19.5626 20 19.7097 19.9429 19.8213 19.8347C19.9925 19.6687 20.046 19.4155 19.9566 19.1944L19.1008 17.0774ZM17.8867 17.2009L18.3293 18.2958L16.9572 17.691C16.8088 17.6256 16.64 17.6246 16.4909 17.6882C15.9531 17.9176 15.3772 18.0352 14.7789 18.0383C14.771 18.038 14.7632 18.0371 14.7552 18.0371C13.6005 18.0371 12.5096 17.5859 11.7475 16.8352C12.7138 16.789 13.6609 16.5422 14.5054 16.1133C14.7939 15.9668 14.909 15.6141 14.7625 15.3256C14.6159 15.0371 14.2632 14.922 13.9747 15.0685C13.1973 15.4633 12.3123 15.672 11.4154 15.672C10.6359 15.672 9.88556 15.5205 9.18516 15.2216C9.03607 15.158 8.8672 15.159 8.71887 15.2244L6.66933 16.1279L7.35938 14.4209C7.44121 14.2185 7.40374 13.9873 7.26209 13.8212C6.54845 12.9839 6.17122 11.9814 6.17122 10.9219C6.17122 8.30272 8.52373 6.17187 11.4154 6.17187C14.307 6.17187 16.6595 8.30272 16.6595 10.9219C16.6595 11.7679 16.4108 12.5984 15.9402 13.3237C15.7641 13.5951 15.8413 13.958 16.1128 14.1341C16.3842 14.3103 16.7471 14.233 16.9233 13.9615C17.3409 13.3179 17.6199 12.6072 17.7489 11.8692C18.4353 12.5414 18.8274 13.4268 18.8274 14.3611C18.8274 15.1792 18.5358 15.9538 17.984 16.6011C17.8423 16.7673 17.8049 16.9985 17.8867 17.2009ZM11.972 13.9355C11.972 14.2591 11.7097 14.5215 11.3861 14.5215C11.0624 14.5215 10.8001 14.2591 10.8001 13.9355C10.8001 13.6119 11.0624 13.3496 11.3861 13.3496C11.7097 13.3496 11.972 13.6119 11.972 13.9355ZM13.6121 9.54546C13.6125 9.5536 13.6126 9.56175 13.6126 9.56998C13.6128 10.452 13.0888 11.2458 12.2775 11.5921C12.1096 11.6638 12.0011 11.8329 12.0011 12.0228V12.0605C12.0011 12.3841 11.7388 12.6465 11.4152 12.6465C11.0916 12.6465 10.8292 12.3841 10.8292 12.0605V12.0228C10.8292 11.3627 11.2171 10.7707 11.8174 10.5144C12.191 10.3549 12.4342 9.99215 12.4406 9.58706C12.4405 9.58144 12.4404 9.57578 12.4404 9.57013C12.4404 9.00485 11.9805 8.54494 11.4152 8.54494C10.8499 8.54491 10.39 9.00482 10.39 9.5701C10.39 9.89371 10.1276 10.156 9.80403 10.156C9.48041 10.156 9.21809 9.89371 9.21809 9.5701C9.21809 8.35865 10.2037 7.37304 11.4152 7.37304C12.6184 7.37304 13.5989 8.34532 13.6121 9.54546Z" fill="#465F56"/>
</g>
<defs>
<clipPath id="clip0">
<rect width="15" height="15" fill="white" transform="translate(5 5)"/>
</clipPath>
</defs>
</svg>
