<svg width="31" height="31" viewBox="0 0 31 31" fill="none" xmlns="http://www.w3.org/2000/svg">
<path d="M15.5 0.916656C7.43538 0.916656 0.916626 7.43541 0.916626 15.5C0.916626 23.5646 7.43538 30.0833 15.5 30.0833C23.5645 30.0833 30.0833 23.5646 30.0833 15.5C30.0833 7.43541 23.5645 0.916656 15.5 0.916656ZM21.7708 21.7708C21.6359 21.906 21.4756 22.0133 21.2992 22.0865C21.1228 22.1596 20.9337 22.1973 20.7427 22.1973C20.5517 22.1973 20.3626 22.1596 20.1861 22.0865C20.0097 22.0133 19.8495 21.906 19.7145 21.7708L15.5 17.5562L11.2854 21.7708C11.0127 22.0435 10.6429 22.1967 10.2573 22.1967C9.87163 22.1967 9.5018 22.0435 9.22913 21.7708C8.95645 21.4981 8.80326 21.1283 8.80326 20.7427C8.80326 20.5518 8.84087 20.3627 8.91394 20.1863C8.98701 20.0099 9.09411 19.8496 9.22913 19.7146L13.4437 15.5L9.22913 11.2854C8.95645 11.0127 8.80326 10.6429 8.80326 10.2573C8.80326 9.87166 8.95645 9.50183 9.22913 9.22916C9.5018 8.95648 9.87163 8.80329 10.2573 8.80329C10.6429 8.80329 11.0127 8.95648 11.2854 9.22916L15.5 13.4437L19.7145 9.22916C19.8496 9.09414 20.0098 8.98704 20.1863 8.91397C20.3627 8.8409 20.5517 8.80329 20.7427 8.80329C20.9336 8.80329 21.1227 8.8409 21.2991 8.91397C21.4755 8.98704 21.6358 9.09414 21.7708 9.22916C21.9058 9.36417 22.0129 9.52446 22.086 9.70086C22.159 9.87727 22.1967 10.0663 22.1967 10.2573C22.1967 10.4482 22.159 10.6373 22.086 10.8137C22.0129 10.9901 21.9058 11.1504 21.7708 11.2854L17.5562 15.5L21.7708 19.7146C22.325 20.2687 22.325 21.2021 21.7708 21.7708Z" fill="#FFD1A6"/>
</svg>
