<svg width="35" height="35" viewBox="0 0 35 35" fill="none" xmlns="http://www.w3.org/2000/svg">
<path d="M35 17.5C35 27.165 27.165 35 17.5 35C7.83502 35 0 27.165 0 17.5C0 7.83502 7.83502 0 17.5 0C27.165 0 35 7.83502 35 17.5Z" fill="#FFD1A6"/>
<path d="M18.4911 22.4996H15.116C14.9662 22.4996 14.8349 22.5562 14.7224 22.6685C14.6098 22.7811 14.5536 22.9122 14.5536 23.0623V26.4375C14.5536 26.5875 14.61 26.7189 14.7224 26.8313C14.8349 26.9435 14.9661 27 15.116 27H18.4911C18.6409 27 18.7726 26.9437 18.8847 26.8313C18.9975 26.7189 19.0538 26.5875 19.0538 26.4375V23.0623C19.0538 22.9122 18.9976 22.7811 18.8847 22.6685C18.7726 22.5559 18.6409 22.4996 18.4911 22.4996Z" fill="#465F56"/>
<path d="M22.9212 12.3962C22.5367 11.688 22.04 11.0906 21.4304 10.603C20.8213 10.1156 20.1365 9.72632 19.3772 9.43581C18.6179 9.1454 17.8632 9 17.1131 9C14.2632 9 12.0882 10.2469 10.5881 12.7408C10.5132 12.8626 10.4873 12.9938 10.5107 13.1345C10.5343 13.2749 10.6069 13.3922 10.7288 13.4859L13.0351 15.2439C13.157 15.3187 13.2742 15.3562 13.3867 15.3562C13.5555 15.3562 13.7007 15.2811 13.8228 15.1311C14.4976 14.2875 14.9993 13.7484 15.3274 13.5139C15.7306 13.2421 16.2367 13.1063 16.8461 13.1063C17.418 13.1063 17.9217 13.2563 18.3578 13.5561C18.7938 13.8561 19.0115 14.203 19.0115 14.5968C19.0115 15.0372 18.8945 15.3936 18.6601 15.6655C18.4258 15.9373 18.0319 16.1997 17.4786 16.4529C16.7476 16.781 16.077 17.2897 15.4679 17.9788C14.8583 18.6679 14.5538 19.4015 14.5538 20.1796V20.8124C14.5538 20.9907 14.6028 21.1664 14.7014 21.3398C14.7999 21.5134 14.9193 21.6 15.06 21.6H18.4351C18.5851 21.6 18.7162 21.5275 18.8288 21.3817C18.9411 21.2368 18.9976 21.0844 18.9976 20.9253C18.9976 20.691 19.1265 20.3766 19.3841 19.983C19.6419 19.5893 19.9629 19.2843 20.3476 19.0686C20.713 18.8624 20.9987 18.6962 21.2052 18.5695C21.4119 18.4431 21.6812 18.2387 22.0141 17.9577C22.3469 17.6763 22.6047 17.3974 22.7873 17.1209C22.9702 16.8444 23.1344 16.4857 23.2797 16.045C23.4253 15.6044 23.4978 15.1309 23.4978 14.6247C23.4977 13.8466 23.3054 13.1037 22.9212 12.3962Z" fill="#465F56"/>
</svg>
